<?xml version="1.0" encoding="UTF-8" standalone="no"?><!DOCTYPE svg PUBLIC "-//W3C//DTD SVG 1.1//EN" "http://www.w3.org/Graphics/SVG/1.1/DTD/svg11.dtd"><svg width="100%" height="100%" viewBox="0 0 800 800" version="1.1" xmlns="http://www.w3.org/2000/svg" xmlns:xlink="http://www.w3.org/1999/xlink" xml:space="preserve" xmlns:serif="http://www.serif.com/" style="fill-rule:evenodd;clip-rule:evenodd;stroke-linejoin:round;stroke-miterlimit:2;"><rect x="-33.394" y="-14.19" width="897.896" height="852.529" style="fill:#3b2e8c;"/><path d="M690.258,323.582l-256.855,-93.297c-11.518,-4.607 -25.34,-5.759 -33.403,-5.759c-9.215,0 -21.885,1.152 -33.403,5.759l-256.855,93.297c-24.188,9.215 -26.491,25.34 -26.491,32.251c-0,6.911 2.303,23.037 26.491,32.251l11.518,3.456l0,95.6c0,13.822 10.367,24.188 24.189,24.188c13.821,0 24.188,-10.366 24.188,-24.188l-0,-78.323l44.921,16.125l-0,108.271c-0,47.224 110.574,70.261 185.442,70.261c74.868,-0 185.442,-21.885 185.442,-70.261l0,-107.119l104.816,-38.01c24.188,-8.063 26.491,-25.34 26.491,-32.251c0,-6.911 -2.303,-23.036 -26.491,-32.251Zm-152.04,203.872c-13.822,9.214 -65.654,27.643 -137.066,27.643c-71.413,0 -124.396,-18.429 -137.066,-27.643l-0,-84.083l103.663,38.01c11.518,4.608 25.34,5.759 33.403,5.759c8.063,0 21.884,-1.151 33.402,-5.759l103.664,-38.01l-0,84.083Zm-120.941,-92.145c-8.062,3.455 -25.34,3.455 -33.402,-0l-219.997,-79.476l218.845,-79.475c8.062,-3.455 25.34,-3.455 33.402,-0l219.997,79.475l-218.845,79.476Z" style="fill:#fff;fill-rule:nonzero;"/><g id="Layer1"></g></svg>